<?xml version="1.0" encoding="UTF-8"?>
<svg id="Layer_1" data-name="Layer 1" xmlns="http://www.w3.org/2000/svg" baseProfile="tiny" version="1.2" viewBox="0 0 1370.8 122.5">
  <path d="M1.3,86.1h20.1c0,9,6.1,15.8,14.8,15.8s14.8-6.3,14.8-14.7V4.2h20.1v81.9c0,19.6-15.9,34.6-34.9,34.6S1.3,105.3,1.3,86.1Z" fill="#000" stroke-width="0"/>
  <path d="M130.1,4h23.3l40.7,114.3h-21.3l-6.3-17.4h-49.6l-6.1,17.4h-21.3L130.1,4ZM160,82.1l-15.8-45.7c-1-2.9-1.8-5.3-2.4-8.2h-.3c-.5,2.7-1.3,5.5-2.4,8l-15.6,45.9h36.5Z" fill="#000" stroke-width="0"/>
  <path d="M216.2,4.2h27.5l30.9,86.9h.5l30.9-86.9h27.7v114.1h-19.8V37.7h-.6c-1,3.5-1.9,7.4-3.7,12.2l-25.3,68.4h-18.5l-25.3-68.4c-1.8-4.8-2.9-8.7-3.7-12.2h-.6v80.7h-20V4.2Z" fill="#000" stroke-width="0"/>
  <path d="M365,4.2h72.9v18.7h-52.8v28.8h43.5v18.8h-43.5v29h52.8v18.8h-72.9V4.2Z" fill="#000" stroke-width="0"/>
  <path d="M458.4,86h19.8c0,9,9,15.6,19.3,15.6s19.2-6.8,19.2-15-6.3-13.4-21.3-17.9c-13.8-4.2-33.8-9.5-33.8-33.5S478.5,1.6,499.7,1.6s37.7,15,37.7,33.8h-20c0-9-7.6-15.1-17.9-15.1s-18,6-18,13.5,4.5,11.4,19.2,15.9c14.7,4.3,35.9,9.5,35.9,35.9s-17.5,34.9-39.3,34.9-39-15.6-39-34.6Z" fill="#000" stroke-width="0"/>
  <path d="M608.7,61.2c0-33,26.4-59.4,59.4-59.4s33.8,6.3,44,18.5l-12.2,13c-8.5-8.7-17.4-13-31.7-13-21.6,0-39.3,17.7-39.3,40.9s17.7,40.9,39.3,40.9,20.3-2.7,28.3-10.6v-20.3h-24.6v-18.8h44.4v44.1c-5.8,8.4-21.9,24.3-48.1,24.3s-59.4-26.7-59.4-59.6Z" fill="#000" stroke-width="0"/>
  <path d="M747.4,4.2h20.1v114.1h-20.1V4.2Z" fill="#000" stroke-width="0"/>
  <path d="M802.3,4.2h20v95.3h46.5v19h-66.5V4.2Z" fill="#000" stroke-width="0"/>
  <path d="M890,4.2h20v95.3h46.5v19h-66.5V4.2Z" fill="#000" stroke-width="0"/>
  <path d="M984.2,4.2h20.1v114.1h-20.1V4.2Z" fill="#000" stroke-width="0"/>
  <path d="M1033.4,86h19.8c0,9,9,15.6,19.3,15.6s19.2-6.8,19.2-15-6.3-13.4-21.3-17.9c-13.8-4.2-33.8-9.5-33.8-33.5s16.9-33.6,38.2-33.6,37.7,15,37.7,33.8h-20c0-9-7.6-15.1-17.9-15.1s-18,6-18,13.5,4.5,11.4,19.2,15.9c14.7,4.3,35.9,9.5,35.9,35.9s-17.5,34.9-39.3,34.9-39-15.6-39-34.6Z" fill="#000" stroke-width="0"/>
  <path d="M1140.3,4.2h35.6c22.2,0,40.1,17.5,40.1,39.8s-17.9,39.9-40.1,39.9h-15.5v34.5h-20.1V4.2ZM1175.9,64.9c11.1,0,20.1-8.5,20.1-20.9s-9-21.4-20.1-21.4h-15.5v42.3h15.5Z" fill="#000" stroke-width="0"/>
  <path d="M1242.7,4.2h20.1v114.1h-20.1V4.2Z" fill="#000" stroke-width="0"/>
  <path d="M1295.7,4.2h72.9v18.7h-52.8v28.8h43.5v18.8h-43.5v29h52.8v18.8h-72.9V4.2Z" fill="#000" stroke-width="0"/>
</svg>