<?xml version="1.0" standalone="no"?>
<!DOCTYPE svg PUBLIC "-//W3C//DTD SVG 20010904//EN"
 "http://www.w3.org/TR/2001/REC-SVG-20010904/DTD/svg10.dtd">
<svg version="1.0" xmlns="http://www.w3.org/2000/svg"
 width="260.000000pt" height="260.000000pt" viewBox="0 0 260.000000 260.000000"
 preserveAspectRatio="xMidYMid meet">
<metadata>
Created by potrace 1.14, written by Peter Selinger 2001-2017
</metadata>
<g transform="translate(0.000000,260.000000) scale(0.100000,-0.100000)"
fill="#000000" stroke="none">
<path d="M1349 2596 c-2 -2 -37 -7 -78 -10 -40 -4 -92 -10 -115 -15 -22 -5
-57 -12 -76 -15 -19 -3 -82 -19 -140 -36 -430 -128 -736 -408 -865 -792 -19
-57 -37 -122 -40 -143 -3 -22 -8 -47 -11 -54 -22 -65 -22 -392 0 -486 3 -11
12 -51 22 -90 68 -288 251 -541 512 -710 109 -70 303 -156 408 -180 10 -2 39
-9 64 -16 66 -16 82 -19 115 -24 17 -2 53 -9 80 -14 55 -11 641 -8 690 3 17 3
66 14 110 22 95 19 205 55 300 99 75 34 205 112 205 123 0 15 -61 112 -70 112
-5 0 -33 -14 -62 -31 -112 -67 -300 -131 -448 -153 -174 -27 -596 -27 -733 -1
-15 3 -37 7 -50 9 -248 44 -512 180 -683 354 -164 165 -257 345 -299 581 -20
106 -12 322 14 422 58 223 190 431 363 571 22 18 45 38 52 43 61 57 253 157
381 200 182 61 309 79 535 78 158 0 268 -9 350 -27 14 -3 49 -11 79 -17 65
-13 251 -76 268 -91 7 -6 13 -8 13 -5 0 3 36 -14 80 -39 44 -24 84 -44 88 -44
4 0 28 24 54 52 46 51 59 78 38 78 -5 0 -31 13 -59 29 -89 53 -306 141 -381
155 -14 2 -32 7 -40 10 -16 6 -59 14 -105 21 -16 2 -46 7 -65 10 -19 3 -51 8
-70 11 -43 6 -425 15 -431 10z"/>
<path d="M1398 2215 c-2 -2 -31 -6 -66 -9 -155 -14 -361 -86 -492 -170 -252
-163 -391 -427 -390 -741 0 -93 2 -117 15 -185 3 -14 7 -34 9 -45 8 -41 50
-151 74 -195 135 -243 396 -418 697 -466 22 -3 43 -8 46 -9 11 -8 178 -18 269
-17 209 1 364 29 532 94 110 42 178 79 268 146 3 2 5 165 5 363 0 313 -2 359
-15 360 -8 0 -212 1 -453 2 l-437 2 0 -77 c0 -43 3 -78 8 -79 4 0 164 -1 357
-2 l350 -2 0 -238 0 -239 -25 -17 c-84 -58 -280 -124 -413 -139 -80 -9 -274
-9 -353 0 -319 36 -579 209 -682 454 -18 44 -27 75 -48 169 -6 29 -6 193 0
240 16 122 68 241 146 340 49 61 55 67 125 121 280 217 787 238 1154 49 47
-24 88 -42 93 -39 5 3 24 36 42 73 l34 67 -51 31 c-97 58 -279 122 -387 137
-25 3 -56 9 -70 12 -27 6 -337 14 -342 9z"/>
</g>
</svg>
